<?xml version="1.0" encoding="utf-8"?>
<!-- Generator: Adobe Illustrator 18.0.0, SVG Export Plug-In . SVG Version: 6.00 Build 0)  -->
<!DOCTYPE svg PUBLIC "-//W3C//DTD SVG 1.1//EN" "http://www.w3.org/Graphics/SVG/1.1/DTD/svg11.dtd">
<svg version="1.1" id="Layer_1" xmlns="http://www.w3.org/2000/svg" xmlns:xlink="http://www.w3.org/1999/xlink" x="0px" y="0px"
	 viewBox="0 0 200 160" enable-background="new 0 0 200 160" xml:space="preserve">
<path fill="none" stroke="#FFFFFF" stroke-width="2.4801" stroke-miterlimit="10" d="M167.3,98.3c15.1-8.9,22.8-22,22.8-39.5
	c0-12.7-4.6-23.7-13.4-32.6c-8.9-8.9-19.9-13.4-32.6-13.7L106,12.3v37.6c-3.2-6.4-7.5-12.3-12.9-17.7c-12.9-12.9-29-19.4-48.1-19.6
	L3,12.3v135.3h41.9c19.2,0,35.2-6.5,48.1-19.4c5.5-5.4,9.8-11.3,12.9-17.7v37.1h31.9V111l21.8,36.6H197L167.3,98.3z"/>
</svg>
